<svg xmlns="http://www.w3.org/2000/svg" width="135" height="42" viewBox="0 0 135 42" fill="#EE4A26"><path d="M111.487 3.00305V8.12524H113.081V0.0645973H111.508V1.22909C111.508 1.35876 111.477 1.43397 111.456 1.45472L111.433 1.47547C111.423 1.48066 111.405 1.48584 111.367 1.48584H109.83V3.01083H111.357C111.403 3.01083 111.446 3.00824 111.487 3.00305Z"></path><path d="M118.733 0.303442C118.35 0.106335 117.918 0 117.459 0C116.999 0 116.565 0.106335 116.179 0.303442C115.602 0.599102 115.142 1.09706 114.831 1.7195C114.519 2.34454 114.353 3.09665 114.353 3.92658V4.26114C114.353 5.41526 114.647 6.39042 115.191 7.08807C115.464 7.4356 115.799 7.71311 116.184 7.90243C116.567 8.08917 116.999 8.18772 117.456 8.18772C117.911 8.18772 118.34 8.09176 118.723 7.90243C119.298 7.62234 119.762 7.13735 120.074 6.51491C120.386 5.89246 120.552 5.12997 120.552 4.26114V3.92658C120.552 2.81915 120.258 1.84918 119.716 1.14115C119.448 0.788428 119.116 0.500549 118.733 0.303442ZM118.95 4.23002C118.95 5.04698 118.774 5.66942 118.506 6.06363C118.371 6.26074 118.217 6.40339 118.046 6.49935C117.875 6.59531 117.684 6.64458 117.461 6.64458C117.237 6.64458 117.043 6.59271 116.869 6.49935C116.611 6.3567 116.389 6.10772 116.223 5.72648C116.059 5.34782 115.96 4.84209 115.96 4.23261V3.9603C115.96 3.14334 116.136 2.5209 116.407 2.12928C116.542 1.93217 116.695 1.78952 116.869 1.69356C117.043 1.5976 117.234 1.54833 117.461 1.54833C117.684 1.54833 117.875 1.6002 118.046 1.69356C118.302 1.83621 118.524 2.08519 118.69 2.46643C118.853 2.84508 118.953 3.35082 118.953 3.96289V4.23002H118.95Z"></path><path d="M126.014 0.303442C125.631 0.106335 125.199 0 124.739 0C124.28 0 123.845 0.106335 123.46 0.303442C122.883 0.599102 122.423 1.09706 122.111 1.7195C121.8 2.34454 121.634 3.09665 121.634 3.92658V4.26114C121.634 5.41526 121.927 6.39042 122.471 7.08807C122.745 7.4356 123.079 7.71311 123.465 7.90243C123.848 8.08917 124.28 8.18772 124.737 8.18772C125.191 8.18772 125.62 8.09176 126.003 7.90243C126.578 7.61974 127.043 7.13735 127.354 6.51491C127.666 5.89246 127.832 5.12997 127.832 4.26114V3.92658C127.832 2.81915 127.538 1.84918 126.997 1.14115C126.729 0.788428 126.397 0.500549 126.014 0.303442ZM126.231 4.23002C126.231 5.04698 126.054 5.66942 125.786 6.06363C125.651 6.26074 125.498 6.40339 125.327 6.49935C125.155 6.59531 124.964 6.64458 124.742 6.64458C124.517 6.64458 124.323 6.59271 124.149 6.49935C123.891 6.3567 123.669 6.10772 123.503 5.72648C123.34 5.34782 123.24 4.84209 123.24 4.23261V3.9603C123.24 3.14334 123.416 2.5209 123.687 2.12928C123.822 1.93217 123.976 1.78952 124.149 1.69356C124.323 1.5976 124.514 1.54833 124.742 1.54833C124.964 1.54833 125.155 1.6002 125.327 1.69356C125.582 1.83621 125.804 2.08519 125.97 2.46643C126.134 2.84508 126.233 3.35082 126.233 3.96289V4.23002H126.231Z"></path><path d="M134.167 1.14115C133.897 0.788428 133.565 0.500549 133.182 0.303442C132.798 0.106335 132.367 0 131.907 0C131.445 0 131.013 0.106335 130.628 0.303442C130.051 0.599102 129.591 1.09706 129.279 1.7195C128.968 2.34454 128.802 3.09665 128.802 3.92658V4.26114C128.802 5.41526 129.095 6.39042 129.639 7.08807C129.913 7.4356 130.247 7.71311 130.633 7.90243C131.016 8.08917 131.447 8.18772 131.905 8.18772C132.359 8.18772 132.788 8.09176 133.171 7.90243C133.746 7.62234 134.211 7.13735 134.522 6.51491C134.834 5.89246 135 5.12997 135 4.26114V3.92658C135.002 2.82174 134.709 1.85177 134.167 1.14115ZM133.399 4.23002C133.399 5.04698 133.222 5.66942 132.952 6.06363C132.816 6.26074 132.663 6.40339 132.492 6.49935C132.321 6.59531 132.129 6.64458 131.907 6.64458C131.682 6.64458 131.488 6.59271 131.315 6.49935C131.057 6.3567 130.835 6.10772 130.669 5.72648C130.505 5.34782 130.406 4.84209 130.406 4.23261V3.9603C130.406 3.14334 130.582 2.5209 130.852 2.12928C130.988 1.93217 131.141 1.78952 131.315 1.69356C131.488 1.5976 131.68 1.54833 131.907 1.54833C132.129 1.54833 132.321 1.6002 132.492 1.69356C132.747 1.83621 132.97 2.08519 133.136 2.46643C133.299 2.84508 133.399 3.35082 133.399 3.96289V4.23002Z"></path><path d="M36.1126 5.36367e-05H7.00882V7.11925H36.1126V5.36367e-05Z"></path><path d="M0 7.11676V29.3769C0 36.3145 5.53932 41.9399 12.3709 41.9399H36.1116V34.8207H7.01034L7.00779 7.11676H0Z"></path><path d="M117.391 34.8808H95.6199V42H117.391V34.8808Z"></path><path d="M95.6133 0.0599902H88.6029V34.8649H95.6133V0.0599902Z"></path><path d="M73.279 26.2968C73.279 29.0358 75.5063 31.2565 78.2535 31.2565C81.0008 31.2565 83.2271 29.0358 83.2271 26.2968C83.2271 23.5578 80.9998 21.3381 78.2535 21.3381C75.5063 21.3371 73.279 23.5578 73.279 26.2968Z"></path><path d="M52.0025 37.0399C52.0025 39.7789 54.2299 41.9996 56.9761 41.9996C59.7233 41.9996 61.9507 39.7789 61.9507 37.0399C61.9507 34.3009 59.7233 32.0812 56.9761 32.0812C54.2299 32.0812 52.0025 34.3009 52.0025 37.0399Z"></path><path d="M52.0025 26.2978C52.0025 29.0368 54.2299 31.2565 56.9761 31.2565C59.7233 31.2565 61.9507 29.0358 61.9507 26.2978C61.9507 23.5588 59.7233 21.3381 56.9761 21.3381C54.2299 21.3381 52.0025 23.5588 52.0025 26.2978Z"></path><path d="M41.2867 37.0399C41.2867 39.7789 43.5141 41.9996 46.2613 41.9996C49.0085 41.9996 51.2349 39.7789 51.2349 37.0399C51.2349 34.3009 49.0075 32.0812 46.2613 32.0812C43.5141 32.0812 41.2867 34.3009 41.2867 37.0399Z"></path><path d="M51.2352 26.2978C51.2352 23.5588 49.0078 21.3381 46.2616 21.3381C43.5153 21.3381 41.288 23.5588 41.288 26.2978C41.288 29.0368 43.5153 31.2565 46.2616 31.2565C49.0078 31.2565 51.2352 29.0368 51.2352 26.2978Z"></path><path d="M41.2866 15.661C41.2866 18.4 43.514 20.6207 46.2612 20.6207C49.0084 20.6207 51.2348 18.4 51.2348 15.661C51.2348 12.922 49.0075 10.7023 46.2612 10.7023C43.514 10.7023 41.2866 12.922 41.2866 15.661Z"></path><path d="M61.9507 4.95879C61.9507 2.21979 59.7233 5.36367e-05 56.9761 5.36367e-05C54.2289 5.36367e-05 52.0025 2.22076 52.0025 4.95879C52.0025 7.69778 54.2299 9.91752 56.9761 9.91752C59.7243 9.91849 61.9507 7.69778 61.9507 4.95879Z"></path><path d="M72.5086 4.95879C72.5086 2.21979 70.2813 5.36367e-05 67.5341 5.36367e-05C64.7869 5.36367e-05 62.5605 2.22076 62.5605 4.95879C62.5605 7.69778 64.7878 9.91752 67.5341 9.91752C70.2813 9.91849 72.5086 7.69778 72.5086 4.95879Z"></path><path d="M72.5086 15.661C72.5086 12.922 70.2813 10.7023 67.5341 10.7023C64.7869 10.7023 62.5605 12.923 62.5605 15.661C62.5605 18.3991 64.7878 20.6207 67.5341 20.6207C70.2813 20.6207 72.5086 18.4 72.5086 15.661Z"></path><path d="M72.509 26.2968C72.509 23.5578 70.2816 21.3381 67.5354 21.3381C64.7882 21.3381 62.5618 23.5588 62.5618 26.2968C62.5618 29.0348 64.7892 31.2565 67.5354 31.2565C70.2816 31.2555 72.509 29.0358 72.509 26.2968Z"></path><path d="M72.5091 37.0399C72.5091 34.3009 70.2817 32.0812 67.5355 32.0812C64.7883 32.0812 62.5619 34.3019 62.5619 37.0399C62.5619 39.7779 64.7892 41.9986 67.5355 41.9986C70.2817 41.9996 72.5091 39.7789 72.5091 37.0399Z"></path><path d="M83.2271 15.661C83.2271 12.922 80.9998 10.7023 78.2535 10.7023C75.5063 10.7023 73.279 12.923 73.279 15.661C73.279 18.3991 75.5063 20.6207 78.2535 20.6207C81.0008 20.6207 83.2271 18.4 83.2271 15.661Z"></path><path d="M56.9757 10.7318C56.5065 10.7192 56.0334 10.728 55.5554 10.6901C54.5906 10.6144 53.5724 10.4096 52.7537 9.86802C52.6018 9.76805 52.4587 9.65546 52.3273 9.53025C51.53 8.77125 51.2749 7.65896 51.2136 6.59908C51.1522 5.54502 51.3323 4.51717 51.013 3.49029C50.4027 1.52679 48.5754 0.1107 46.5174 0.00684677C46.4318 0.00296442 46.3471 5.26828e-05 46.2614 5.26828e-05C43.5142 5.26828e-05 41.2878 2.22076 41.2878 4.95878C41.2878 7.08146 42.6955 9.01584 44.7203 9.6739C45.5955 9.95828 46.5554 9.89908 47.4666 9.92625C48.0984 9.94469 48.737 9.99128 49.3484 10.1611C49.9169 10.3193 50.5068 10.5125 50.9342 10.9405C52.5804 12.5886 51.6409 14.9888 52.1861 16.9824C52.7673 19.109 54.7698 20.6192 56.9777 20.6192C59.7249 20.6192 61.9522 18.3985 61.9522 15.6605C61.9522 13.599 60.6244 11.7044 58.6803 10.9987C58.1137 10.7959 57.5472 10.7474 56.9757 10.7318Z"></path></svg>