<svg id="Layer_1" data-name="Layer 1" xmlns="http://www.w3.org/2000/svg" viewBox="0 0 1080 273.39"><defs><style>.cls-1{fill:#010101;}.cls-2{fill:#2a5799;}</style></defs><path class="cls-1" d="M416.34,56.3q-18.07-16.54-44.07-16.54H221q-25.83,0-44.06,16.54t-18.09,40v80.53a56.42,56.42,0,0,0,.51,7.66l52.32-26.13V105.45a20.11,20.11,0,0,1,7.21-16,24.28,24.28,0,0,1,17.66-6.64H356.75a27.73,27.73,0,0,1,5.45.3,18.37,18.37,0,0,1,1.85.39,22,22,0,0,1,10.35,5.8,21.11,21.11,0,0,1,5.41,7.23A19.51,19.51,0,0,1,380.7,99a22.05,22.05,0,0,1,.9,6.45V167.6c0,6.13-2.41,11.44-7.2,16q-7.06,6.21-17.65,6.63H340.07l-19.19,43.09h51.39q26,0,44.07-16.53,18.24-16.51,18.09-40V96.26Q434.56,72.83,416.34,56.3Z"/><path class="cls-1" d="M730.63,39.77V82.85H630.34V233.29H577.51V82.85H477.36V39.77Z"/><path class="cls-1" d="M963.41,39.77q28.11,0,48,18.08t19.92,43.65q0,23.58-17.24,41-17.24,16.95-42.94,19.92l63,70.91H972.73l-58.2-70.21H826.25v70.21H773.42V39.77ZM826.25,120.42l132.08.14q9.31,0,14.83-5.36A17.38,17.38,0,0,0,979,101.64q.13-8.48-5.79-13.56-5.5-5.65-14.83-5.23H826.25Z"/><path class="cls-1" d="M365.34,90.32,94.4,269.74H2.29L363.53,89.39A16.28,16.28,0,0,1,365.34,90.32Z"/><path class="cls-1" d="M374.16,98.8,298,269.74H223.14L371.92,95.82A20.91,20.91,0,0,1,374.16,98.8Z"/><polygon class="cls-2" points="171.95 251.42 208.11 251.42 189.48 269.73 148.81 269.73 171.95 251.42"/><polygon class="cls-2" points="218.92 214.25 245.95 214.25 221.83 237.95 188.98 237.95 218.92 214.25"/><polygon class="cls-2" points="290.98 157.24 303.97 157.24 258 202.41 233.88 202.41 290.98 157.24"/><polygon class="cls-2" points="318.19 135.7 325.9 135.7 311.56 149.8 300.38 149.8 318.19 135.7"/><polygon class="cls-2" points="337.59 120.35 341.53 120.35 331.35 130.36 324.94 130.36 337.59 120.35"/><polygon class="cls-2" points="357.8 104.37 343.81 118.1 340.44 118.1 357.8 104.37"/><path class="cls-2" d="M113.37,3.65V207.87l23-11.57V26.62h918.4V243.38H318.56l-9.3,23h768.45V3.65Z"/></svg>